name Walk5.mot
datacolumns 19
datarows 15
range 3.06500000 3.13500000
endheader

                time	   L_ground_force_vx	   L_ground_force_vy	   L_ground_force_vz	   L_ground_force_px	   L_ground_force_py	   L_ground_force_pz	   R_ground_force_vx	   R_ground_force_vy	   R_ground_force_vz	   R_ground_force_px	   R_ground_force_py	   R_ground_force_pz	   L_ground_torque_x	   L_ground_torque_y	   L_ground_torque_z	   R_ground_torque_x	   R_ground_torque_y	   R_ground_torque_z	
          3.06500000	          0.00000000	          0.00000000	          0.00000000	          0.00000000	          0.00000000	          0.00000000	         20.70667847	         75.88007454	          2.01733203	          0.19634913	          0.00000000	          0.06189025	          0.00000000	          0.00000000	          0.00000000	          0.00000000	         -5.41377481	          0.00000000	
          3.07000000	          0.00000000	          0.00000000	         -0.00000000	         -0.00000000	          0.00000000	         -0.00000000	         15.27497690	         51.88440241	          1.95256642	          0.16636724	          0.00000000	          0.05224680	          0.00000000	          0.00000000	          0.00000000	          0.00000000	         -4.19663746	          0.00000000	
          3.07500000	          0.00000000	          0.00000000	         -0.00000000	         -0.00000000	          0.00000000	         -0.00000000	         10.59160032	         32.42873130	          1.75788224	          0.13458706	          0.00000000	          0.04211912	          0.00000000	          0.00000000	          0.00000000	          0.00000000	         -3.08851340	          0.00000000	
          3.08000000	          0.00000000	          0.00000000	         -0.00000000	         -0.00000000	          0.00000000	         -0.00000000	          6.75075877	         17.38836528	          1.49404201	          0.10358611	          0.00000000	          0.03230059	          0.00000000	          0.00000000	          0.00000000	          0.00000000	         -2.13374495	          0.00000000	
          3.08500000	          0.00000000	          0.00000000	         -0.00000000	         -0.00000000	          0.00000000	         -0.00000000	          3.75379809	          6.36806047	          1.20668573	          0.07551340	          0.00000000	          0.02344957	          0.00000000	          0.00000000	          0.00000000	          0.00000000	         -1.35271700	          0.00000000	
          3.09000000	          0.00000000	          0.00000000	         -0.00000000	         -0.00000000	          0.00000000	         -0.00000000	          1.53502523	         -1.20268411	          0.92697546	          0.05153871	          0.00000000	          0.01591901	          0.00000000	          0.00000000	          0.00000000	          0.00000000	         -0.74487536	          0.00000000	
          3.09500000	          0.00000000	          0.00000000	         -0.00000000	         -0.00000000	          0.00000000	         -0.00000000	         -0.00923277	         -5.96253818	          0.67429013	          0.03208812	          0.00000000	          0.00983080	          0.00000000	          0.00000000	          0.00000000	          0.00000000	         -0.29616765	          0.00000000	
          3.10000000	          0.00000000	          0.00000000	         -0.00000000	         -0.00000000	          0.00000000	         -0.00000000	         -0.99880530	         -8.54337571	          0.45891973	          0.01707705	          0.00000000	          0.00514905	          0.00000000	          0.00000000	          0.00000000	          0.00000000	          0.01500319	          0.00000000	
          3.10500000	          0.00000000	          0.00000000	         -0.00000000	         -0.00000000	          0.00000000	         -0.00000000	         -1.55440558	         -9.52273910	          0.28451186	          0.00610016	          0.00000000	          0.00173951	          0.00000000	          0.00000000	          0.00000000	          0.00000000	          0.21336445	          0.00000000	
          3.11000000	          0.00000000	          0.00000000	         -0.00000000	         -0.00000000	          0.00000000	         -0.00000000	         -1.78776658	         -9.39765235	          0.15016603	         -0.00142156	          0.00000000	         -0.00058453	          0.00000000	          0.00000000	          0.00000000	          0.00000000	          0.32369514	          0.00000000	
          3.11500000	          0.00000000	          0.00000000	         -0.00000000	         -0.00000000	          0.00000000	         -0.00000000	         -1.79602575	         -8.57419597	          0.05213633	         -0.00613267	          0.00000000	         -0.00202867	          0.00000000	          0.00000000	          0.00000000	          0.00000000	          0.36884770	          0.00000000	
          3.12000000	          0.00000000	         -0.00000000	         -0.00000000	         -0.00000000	          0.00000000	         -0.00000000	         -1.65927828	         -7.36801412	         -0.01485157	         -0.00866879	          0.00000000	         -0.00279432	          0.00000000	          0.00000000	          0.00000000	          0.00000000	          0.36863177	          0.00000000	
          3.12500000	         -0.00000000	         -0.00000000	         -0.00000000	         -0.00000000	          0.00000000	         -0.00000000	         -1.44035593	         -6.01179224	         -0.05663504	         -0.00960956	          0.00000000	         -0.00306433	          0.00000000	          0.00000000	          0.00000000	          0.00000000	          0.33933898	          0.00000000	
          3.13000000	         -0.00000000	         -0.00000000	         -0.00000000	         -0.00000000	          0.00000000	         -0.00000000	         -1.18605052	         -4.66661334	         -0.07895081	         -0.00945285	          0.00000000	         -0.00299512	          0.00000000	         -0.00000000	          0.00000000	          0.00000000	          0.29371647	          0.00000000	
          3.13500000	         -0.00000000	         -0.00000000	         -0.00000000	         -0.00000000	          0.00000000	         -0.00000000	         -0.92916714	         -3.43490348	         -0.08701744	         -0.00860476	          0.00000000	         -0.00271386	          0.00000000	         -0.00000000	          0.00000000	          0.00000000	          0.24123022	          0.00000000	
